<svg version="1.1" xmlns="http://www.w3.org/2000/svg" xmlns:xlink="http://www.w3.org/1999/xlink" width="48" height="48"><defs><linearGradient x1="0" y1="0" x2="0" y2="0" gradientUnits="userSpaceOnUse" id="color-1"><stop offset="0" stop-color="#000000" stop-opacity="0.27"></stop><stop offset="1" stop-color="#000000" stop-opacity="0"></stop></linearGradient><filter id="dropshadow-base"><feColorMatrix type="matrix" values="0 0 0 0 0  0 0 0 0 0  0 0 0 0 0  0 0 0 .8 0"></feColorMatrix> <feOffset dx="0" dy="1"></feOffset> <feGaussianBlur stdDeviation="1"></feGaussianBlur> <feComposite in="SourceGraphic"></feComposite></filter><filter id="dropshadow-banner" x="-10%" y="-10%" width="120%" height="130%"><feColorMatrix type="matrix" values="0 0 0 0 0  0 0 0 0 0  0 0 0 0 0  0 0 0 .4 0"></feColorMatrix> <feOffset dx="0" dy="1"></feOffset> <feGaussianBlur stdDeviation="0.5"></feGaussianBlur> <feComposite in="SourceGraphic"></feComposite></filter></defs><g fill="none" fill-rule="nonzero" stroke="none" stroke-width="none" stroke-linecap="butt" stroke-linejoin="miter" stroke-miterlimit="10" stroke-dasharray="" stroke-dashoffset="0" font-family="none" font-weight="none" font-size="none" text-anchor="none" style="mix-blend-mode: normal"><path d="M2,24c0,-12.15026 9.84974,-22 22,-22c12.15026,0 22,9.84974 22,22c0,12.15026 -9.84974,22 -22,22c-12.15026,0 -22,-9.84974 -22,-22z" id="base 1 5" fill="#ffffff" stroke-width="1"></path><path d="" fill="url(#color-1)" stroke-width="1"></path><path d="M24,4.36957c-10.84582,0 -19.63043,8.78462 -19.63043,19.63043c0,10.84582 8.78462,19.63043 19.63043,19.63043c10.84582,0 19.63043,-8.78462 19.63043,-19.63043c0,-10.84582 -8.78462,-19.63043 -19.63043,-19.63043zM24,10.2587c3.24884,0 5.88913,2.64029 5.88913,5.88913c0,3.25865 -2.64029,5.88913 -5.88913,5.88913c-3.24884,0 -5.88913,-2.63048 -5.88913,-5.88913c0,-3.24884 2.64029,-5.88913 5.88913,-5.88913zM24,38.13391c-4.91742,0 -9.23612,-2.5127 -11.77826,-6.321c0.04908,-3.89664 7.86199,-6.04617 11.77826,-6.04617c3.91627,0 11.71937,2.14953 11.77826,6.04617c-2.54214,3.8083 -6.86084,6.321 -11.77826,6.321z" fill="none" stroke-width="0"></path><path d="M43.63043,24c0,10.84582 -8.78462,19.63043 -19.63043,19.63043c-10.84582,0 -19.63043,-8.78462 -19.63043,-19.63043c0,-10.84582 8.78462,-19.63043 19.63043,-19.63043c10.84582,0 19.63043,8.78462 19.63043,19.63043zM18.11087,16.14783c0,3.25865 2.64029,5.88913 5.88913,5.88913c3.24884,0 5.88913,-2.63048 5.88913,-5.88913c0,-3.24884 -2.64029,-5.88913 -5.88913,-5.88913c-3.24884,0 -5.88913,2.64029 -5.88913,5.88913zM35.77826,31.81291c-0.05889,-3.89664 -7.86199,-6.04617 -11.77826,-6.04617c-3.91627,0 -11.72918,2.14953 -11.77826,6.04617c2.54214,3.8083 6.86084,6.321 11.77826,6.321c4.91742,0 9.23612,-2.5127 11.77826,-6.321z" fill="#7957d5" stroke-width="0"></path><path d="M2,24c0,-12.15026 9.84974,-22 22,-22c12.15026,0 22,9.84974 22,22c0,12.15026 -9.84974,22 -22,22c-12.15026,0 -22,-9.84974 -22,-22z" id="base 1 1 1" fill="none" stroke-width="1"></path><g fill="#000000" stroke-width="1" font-family="Roboto, sans-serif" font-weight="400" font-size="14" text-anchor="start"></g><rect x="2" y="2" width="44" height="22" fill="none" stroke-width="1"></rect><path d="M2,24v-22h44v22z" fill="none" stroke-width="1"></path><path d="M2,24v-22h44v22z" fill="none" stroke-width="1"></path><path d="M2,24v-22h44v22z" fill="none" stroke-width="1"></path><path d="M2,24v-22h44v22z" fill="none" stroke-width="1"></path></g></svg>